<?xml version="1.0" standalone="no"?>
<!DOCTYPE svg PUBLIC "-//W3C//DTD SVG 20010904//EN"
 "http://www.w3.org/TR/2001/REC-SVG-20010904/DTD/svg10.dtd">
<svg version="1.0" xmlns="http://www.w3.org/2000/svg"
 width="225.000000pt" height="225.000000pt" viewBox="0 0 225.000000 225.000000"
 preserveAspectRatio="xMidYMid meet">
<metadata>
Created by potrace 1.10, written by Peter Selinger 2001-2011
</metadata>
<g transform="translate(0.000000,225.000000) scale(0.100000,-0.100000)"
fill="#000000" stroke="none">
<path d="M1056 2025 c-49 -17 -112 -79 -127 -123 -6 -19 -9 -61 -7 -93 5 -71
43 -132 101 -162 l37 -19 0 -79 c0 -67 -3 -80 -17 -85 -10 -3 -40 -14 -68 -25
l-50 -19 -53 53 -53 53 11 47 c25 98 -31 207 -125 243 -130 49 -268 -33 -282
-168 -11 -106 45 -194 143 -225 46 -14 61 -15 106 -4 l52 12 53 -53 52 -53
-26 -67 -27 -68 -75 0 -76 0 -23 41 c-35 61 -102 99 -174 99 -75 0 -114 -17
-160 -68 -86 -96 -68 -239 40 -312 30 -21 47 -25 113 -25 70 0 81 3 120 30 23
17 51 47 62 68 l19 38 81 -3 80 -3 12 -40 c6 -22 18 -50 26 -62 13 -22 11 -26
-42 -78 l-55 -56 -51 12 c-66 16 -127 0 -182 -47 -137 -118 -64 -347 115 -362
146 -12 256 112 224 253 l-11 49 56 55 c52 53 56 55 78 42 12 -8 40 -20 62
-26 l40 -12 2 -79 2 -79 -47 -30 c-63 -40 -92 -93 -92 -168 0 -73 17 -113 68
-159 94 -85 237 -69 309 35 23 33 28 53 31 111 3 65 1 75 -27 118 -16 26 -48
57 -70 70 l-41 23 0 77 0 76 38 13 c20 6 49 19 65 28 27 15 28 15 83 -40 l55
-55 -11 -47 c-21 -98 22 -189 110 -235 61 -31 151 -28 204 8 116 79 128 245
24 334 -52 45 -122 63 -185 46 l-47 -11 -55 55 c-55 55 -55 56 -40 83 9 16 22
45 28 66 l13 37 78 0 78 0 19 -37 c11 -22 41 -53 69 -71 46 -32 53 -34 120
-30 85 4 137 34 175 101 29 51 32 145 7 192 -78 147 -273 159 -362 23 l-31
-47 -77 0 -76 -1 -13 38 c-6 20 -19 49 -28 65 -15 27 -15 28 40 82 l55 56 51
-12 c140 -33 265 82 250 228 -18 174 -226 245 -354 121 -48 -47 -68 -116 -54
-186 l11 -57 -55 -55 c-52 -52 -56 -54 -78 -41 -12 8 -40 20 -62 26 l-40 12
-2 79 -2 79 47 30 c60 38 92 98 92 172 0 70 -18 110 -68 155 -61 56 -131 70
-206 43z m143 -49 c12 -9 13 -8 7 4 -5 8 8 -2 28 -23 20 -20 36 -42 36 -48 0
-5 5 -7 11 -3 8 4 9 -1 4 -16 -4 -13 -3 -20 2 -17 6 4 9 -17 8 -48 -2 -45 -8
-62 -36 -99 -19 -24 -37 -42 -40 -40 -10 6 -49 -27 -49 -42 0 -8 -4 -14 -9
-14 -4 0 -9 -34 -9 -75 -1 -89 8 -104 93 -144 68 -33 98 -29 139 19 13 16 26
27 29 24 3 -3 8 4 12 15 3 12 11 21 16 21 19 0 27 46 18 97 -7 35 -6 59 2 79
7 16 12 32 11 37 -1 4 3 7 10 7 6 0 8 3 5 7 -9 8 53 64 64 57 5 -3 9 0 9 6 0
7 6 10 14 7 8 -3 17 -3 20 0 9 9 76 10 70 1 -3 -5 6 -7 20 -4 15 3 24 1 21 -4
-3 -5 3 -14 14 -19 10 -6 31 -31 46 -56 21 -37 25 -54 20 -83 -3 -20 -7 -48
-9 -62 -4 -38 -5 -40 -13 -38 -5 2 -9 -1 -10 -5 -4 -13 -31 -37 -42 -37 -6 0
-11 -4 -11 -8 0 -15 -86 -21 -137 -10 -24 6 -39 2 -65 -16 -18 -13 -32 -28
-30 -35 1 -7 -2 -10 -7 -6 -6 3 -26 -11 -46 -32 -20 -21 -31 -39 -24 -42 8 -2
7 -6 -2 -12 -11 -6 -11 -11 -1 -21 6 -6 12 -20 12 -30 0 -10 4 -18 9 -18 5 0
12 -12 15 -26 12 -46 47 -69 111 -73 74 -4 114 8 130 39 22 43 75 88 109 94
83 15 96 16 96 7 0 -5 10 -11 23 -15 22 -5 86 -56 71 -56 -3 0 0 -7 7 -16 18
-22 38 -83 29 -89 -4 -2 -10 -22 -14 -43 -6 -38 -33 -70 -86 -101 -36 -21
-115 -22 -140 -2 -11 9 -31 24 -45 34 -15 11 -30 30 -35 43 -5 13 -17 24 -25
24 -9 0 -14 4 -11 9 3 5 -1 12 -10 15 -25 10 -142 7 -149 -4 -3 -5 -13 -6 -23
-3 -9 3 -14 3 -10 -2 4 -4 1 -13 -6 -19 -8 -6 -25 -38 -38 -71 -27 -67 -24
-82 26 -133 72 -74 91 -83 145 -71 24 5 53 7 65 3 39 -11 76 -29 76 -36 0 -4
6 -5 14 -2 8 3 17 0 22 -7 4 -8 3 -10 -4 -5 -7 4 -12 2 -12 -3 0 -6 4 -11 9
-11 5 0 15 -16 22 -35 7 -19 17 -35 22 -35 5 0 4 -6 -2 -14 -6 -8 -10 -30 -8
-50 2 -20 0 -36 -5 -36 -6 0 -8 -7 -4 -15 3 -8 1 -14 -4 -12 -5 1 -19 -12 -32
-28 -13 -17 -30 -30 -38 -30 -8 1 -30 -4 -47 -11 -18 -7 -35 -9 -38 -4 -3 5
-21 7 -40 5 -19 -2 -33 1 -30 5 5 8 -32 34 -45 33 -3 -1 -4 3 -2 9 1 5 -6 21
-16 36 -27 38 -34 75 -23 124 12 53 7 65 -64 139 -36 39 -107 76 -89 47 4 -6
3 -8 -3 -5 -13 8 -99 -29 -126 -53 -30 -29 -37 -213 -6 -195 5 4 9 -1 9 -10 0
-8 11 -20 24 -25 13 -4 33 -21 45 -37 11 -15 26 -34 32 -41 15 -18 15 -135 0
-140 -6 -2 -11 -8 -11 -14 0 -6 -14 -24 -30 -40 -17 -15 -30 -25 -30 -21 0 4
-5 2 -12 -5 -7 -7 -25 -12 -40 -12 -15 0 -28 -6 -29 -12 0 -10 -2 -10 -6 0 -2
6 -16 12 -31 12 -14 0 -34 8 -45 17 -15 13 -18 14 -12 3 5 -8 -3 -4 -16 10
-14 14 -34 41 -46 61 -19 34 -20 71 0 145 5 19 45 64 56 64 7 0 14 7 17 15 4
8 13 15 21 15 8 0 12 4 9 9 -3 5 0 11 8 14 10 4 14 27 14 81 0 65 -3 80 -21
100 -20 21 -48 36 -63 35 -4 0 -10 3 -13 8 -3 5 -19 14 -36 22 -22 9 -30 10
-33 1 -3 -8 -7 -9 -11 -2 -8 13 -99 -72 -123 -114 -12 -22 -14 -39 -8 -74 9
-49 2 -110 -12 -110 -5 0 -7 -4 -4 -9 3 -4 -3 -16 -14 -26 -11 -10 -17 -21
-15 -26 3 -4 0 -11 -6 -15 -8 -4 -9 -3 -5 4 4 7 2 12 -3 12 -6 0 -11 -4 -11
-10 0 -5 -9 -10 -21 -10 -11 0 -18 -4 -15 -9 9 -14 -22 -21 -50 -11 -14 6 -36
7 -49 4 -18 -4 -33 5 -73 45 l-50 50 2 73 c2 83 15 106 80 140 43 22 91 27
148 14 30 -7 40 -4 57 13 12 12 21 18 21 14 1 -5 7 3 15 17 8 14 14 21 15 16
0 -5 15 10 34 34 28 35 32 47 25 69 -42 132 -54 143 -159 149 -57 3 -80 1 -80
-8 0 -6 -4 -8 -10 -5 -5 3 -21 -12 -35 -35 -35 -55 -96 -92 -157 -94 -26 0
-48 2 -48 5 0 7 -52 33 -62 31 -4 -1 -10 7 -13 18 -4 11 -10 20 -14 20 -14 0
-32 91 -25 124 3 17 16 42 28 56 19 22 19 23 1 10 -20 -15 -20 -15 0 9 11 13
41 34 68 46 41 19 54 21 100 13 28 -6 59 -16 67 -24 8 -8 24 -22 35 -30 11 -9
14 -13 8 -9 -9 4 -11 1 -7 -10 4 -9 9 -13 12 -11 3 3 18 -8 34 -24 26 -28 33
-30 101 -30 67 0 75 2 100 28 15 15 27 36 27 46 0 9 10 35 23 58 16 30 19 42
10 45 -7 3 -13 10 -13 17 0 23 -113 119 -140 118 -14 0 -47 -1 -75 -3 -29 -1
-61 3 -75 11 -14 8 -27 15 -30 15 -18 2 -50 28 -45 35 3 5 -1 23 -10 40 -9 17
-13 35 -10 40 3 6 2 10 -3 10 -26 0 21 113 60 145 31 26 44 29 95 29 23 1 39
4 37 7 -2 4 9 2 26 -4 16 -6 30 -15 30 -20 0 -4 5 -5 10 -2 6 3 14 -5 19 -18
6 -14 16 -29 23 -33 9 -6 9 -2 -2 12 -12 17 -12 17 0 6 8 -7 15 -16 16 -20 0
-4 5 -25 12 -47 7 -25 8 -56 2 -84 -10 -56 -7 -65 51 -123 26 -26 44 -48 41
-49 -8 0 37 -21 56 -25 6 -1 12 3 12 9 0 5 3 7 6 4 4 -3 16 0 28 8 11 8 30 15
41 15 40 0 68 43 72 112 2 35 1 73 -2 85 -8 32 -52 76 -66 67 -7 -4 -9 -3 -6
3 3 5 -7 20 -23 32 -17 12 -30 30 -30 41 0 10 -4 21 -9 24 -25 16 22 158 61
182 7 5 8 2 3 -7 -5 -8 1 -6 13 5 38 34 125 40 161 12z"/>
<path d="M1074 1924 c-10 -8 -13 -12 -5 -8 10 5 12 3 7 -5 -5 -7 -15 -10 -24
-6 -9 3 -13 3 -10 -1 4 -3 1 -13 -7 -21 -30 -30 -15 -120 21 -129 13 -3 22
-10 19 -14 -3 -4 9 -13 25 -19 21 -7 30 -7 30 1 0 7 5 6 15 -2 14 -11 19 -7
16 12 0 4 6 5 14 2 14 -6 20 6 16 29 -1 5 3 6 8 2 14 -8 31 28 31 69 0 40 -42
98 -65 89 -8 -3 -15 0 -15 6 0 17 -53 13 -76 -5z m101 -49 c30 -30 31 -54 4
-89 -15 -19 -30 -26 -54 -26 -37 0 -75 37 -75 72 0 27 45 68 75 68 14 0 37
-11 50 -25z"/>
<path d="M594 1726 c-37 -16 -87 -96 -77 -123 15 -41 46 -73 83 -84 36 -11 43
-10 79 14 52 35 69 82 46 131 -28 58 -81 83 -131 62z m86 -58 c11 -12 20 -32
20 -45 0 -31 -42 -73 -73 -73 -55 0 -89 80 -50 122 23 25 77 24 103 -4z"/>
<path d="M1577 1718 c-21 -12 -40 -33 -43 -45 -4 -13 -10 -23 -15 -23 -5 0 -9
-11 -9 -25 0 -14 5 -25 11 -25 5 0 7 -5 4 -10 -10 -17 24 -62 41 -56 8 3 13 2
9 -3 -8 -15 49 -23 79 -12 50 20 69 46 71 101 1 37 -2 50 -12 50 -8 0 -12 4
-8 9 8 14 -47 53 -67 48 -10 -3 -16 -1 -12 4 9 15 -9 10 -49 -13z m95 -45 c24
-22 24 -77 -2 -103 -27 -27 -66 -25 -95 5 -30 29 -32 68 -5 95 24 24 77 26
102 3z"/>
<path d="M1072 1373 c-18 -3 -30 -9 -26 -14 3 -6 0 -9 -7 -8 -24 4 -71 -20
-63 -33 4 -6 3 -8 -4 -5 -12 8 -62 -48 -62 -69 0 -9 -5 -12 -12 -8 -8 5 -9 2
-5 -9 3 -10 3 -17 -2 -17 -5 0 -12 -24 -15 -54 -17 -130 80 -255 215 -280 41
-7 139 11 139 25 0 6 5 7 11 4 14 -10 98 79 116 124 24 56 21 147 -7 201 -27
54 -94 119 -130 129 -87 22 -84 22 -148 14z m147 -57 c63 -33 121 -124 121
-190 0 -68 -57 -159 -121 -191 -97 -51 -232 -6 -284 95 -56 108 2 251 119 294
48 18 121 14 165 -8z"/>
<path d="M393 1228 c-18 -5 -33 -13 -33 -19 0 -6 -4 -7 -10 -4 -5 3 -7 0 -4
-8 3 -8 0 -18 -7 -23 -8 -5 -10 -3 -5 7 4 8 0 5 -8 -5 -18 -22 -22 -76 -5 -76
5 0 7 -5 4 -11 -10 -15 32 -57 70 -69 22 -7 40 -7 56 -1 38 16 71 49 63 62 -4
7 -3 9 3 6 6 -4 13 3 15 16 6 32 -7 72 -21 69 -7 -1 -11 3 -9 10 11 32 -57 60
-109 46z m73 -51 c17 -15 27 -33 27 -52 0 -33 -42 -75 -74 -75 -28 0 -69 44
-69 75 0 31 41 75 69 75 11 0 32 -10 47 -23z"/>
<path d="M1775 1219 c-11 -6 -30 -31 -43 -56 -13 -24 -18 -41 -11 -37 9 5 10
2 6 -9 -16 -42 44 -97 107 -97 40 0 93 40 80 61 -4 7 -3 9 3 6 14 -9 26 38 17
65 -3 12 -19 34 -35 49 -32 31 -83 38 -124 18z m108 -51 c24 -28 21 -65 -8
-93 -30 -30 -54 -31 -89 -4 -36 29 -36 80 1 109 32 25 69 20 96 -12z"/>
<path d="M581 721 c-11 -11 -22 -17 -24 -14 -3 3 -15 -14 -27 -37 -21 -40 -21
-42 -3 -78 11 -22 28 -39 43 -43 14 -4 19 -7 11 -8 -16 -1 -7 -14 12 -17 7 -1
21 -6 31 -10 13 -5 17 -4 13 3 -4 7 0 9 11 6 48 -12 105 83 83 140 -6 16 -15
25 -21 22 -5 -3 -7 0 -4 9 4 9 -5 20 -25 30 -40 21 -77 20 -100 -3z m94 -46
c47 -46 19 -115 -47 -115 -42 0 -68 25 -68 67 0 67 68 96 115 48z"/>
<path d="M1575 724 c-11 -8 -19 -20 -17 -26 2 -6 -4 -8 -13 -5 -8 4 -16 2 -16
-3 -2 -14 -5 -23 -13 -43 -10 -21 1 -70 14 -62 6 3 7 -1 4 -9 -4 -11 0 -16 12
-16 9 0 15 -3 11 -6 -12 -13 24 -36 58 -37 44 -1 111 50 108 83 -2 13 1 19 8
14 8 -4 7 0 0 15 -7 12 -9 25 -6 30 3 5 -7 24 -21 41 -18 21 -29 27 -34 20 -5
-8 -9 -7 -13 4 -8 20 -56 20 -82 0z m95 -44 c24 -24 26 -77 3 -102 -22 -24
-77 -24 -103 2 -27 27 -25 66 5 95 29 30 68 32 95 5z"/>
<path d="M1096 527 c-11 -7 -32 -25 -48 -40 -51 -51 -33 -128 41 -166 56 -30
141 28 141 97 0 42 -37 102 -57 95 -7 -3 -13 1 -13 7 0 7 -8 9 -21 5 -15 -5
-19 -4 -15 4 9 14 -4 13 -28 -2z m83 -63 c27 -35 26 -59 -4 -89 -63 -63 -160
18 -105 88 29 37 80 37 109 1z"/>
</g>
</svg>
