<?xml version="1.0" standalone="no"?>
<!DOCTYPE svg PUBLIC "-//W3C//DTD SVG 20010904//EN"
 "http://www.w3.org/TR/2001/REC-SVG-20010904/DTD/svg10.dtd">
<svg version="1.0" xmlns="http://www.w3.org/2000/svg"
 width="200.000000pt" height="200.000000pt" viewBox="0 0 200.000000 200.000000"
 preserveAspectRatio="xMidYMid meet">
<metadata>
Created by potrace 1.10, written by Peter Selinger 2001-2011
</metadata>
<g transform="translate(0.000000,200.000000) scale(0.100000,-0.100000)"
fill="#000000" stroke="none">
<path d="M932 1932 c-12 -9 -31 -40 -41 -68 -20 -51 -20 -51 1 -90 11 -22 26
-46 34 -55 20 -23 18 -27 -18 -37 -35 -9 -64 -42 -74 -84 l-6 -28 167 0 167 0
-6 28 c-10 40 -40 77 -67 81 -33 4 -41 22 -21 46 10 11 26 36 37 56 l18 37
-26 55 c-14 31 -35 61 -46 66 -30 17 -93 13 -119 -7z m138 -83 c0 -24 4 -30
15 -25 29 11 8 -39 -39 -91 -40 -46 -92 -27 -139 49 -21 33 -21 38 -2 38 10 0
15 10 15 30 l0 30 75 0 75 0 0 -31z m-25 -166 c6 -16 -37 -27 -70 -19 -14 4
-25 12 -25 19 0 16 88 16 95 0z m-81 -58 c18 -14 16 -15 -27 -15 -37 0 -45 3
-41 15 8 19 43 19 68 0z m124 -2 c2 -9 -8 -13 -35 -13 -36 1 -37 1 -18 16 22
17 46 15 53 -3z"/>
<path d="M966 1755 c4 -8 16 -15 29 -15 13 0 25 7 29 15 4 12 -3 15 -29 15
-26 0 -33 -3 -29 -15z"/>
<path d="M1530 1693 c-19 -8 -44 -26 -57 -39 -12 -13 -29 -24 -38 -24 -20 0
-19 -8 5 -47 23 -38 11 -52 -25 -29 -33 22 -61 20 -102 -5 l-35 -22 118 -118
c65 -65 121 -116 124 -114 4 2 15 23 25 45 18 40 18 43 1 75 -24 45 -13 61 24
35 33 -24 50 -26 50 -6 0 8 10 27 23 43 55 69 69 121 46 166 -28 55 -89 71
-159 40z m-14 -38 c-7 -19 -1 -19 29 1 21 13 25 14 25 2 0 -8 18 -32 40 -53
22 -21 40 -35 40 -30 0 4 3 6 6 3 3 -4 -3 -19 -13 -34 -17 -27 -17 -28 1 -21
15 6 16 5 8 -5 -6 -7 -31 -19 -57 -27 -54 -16 -84 -7 -111 34 -14 22 -15 31
-4 73 12 44 27 72 37 72 3 0 3 -7 -1 -15z m-103 -170 c9 -19 35 -46 57 -60 38
-24 54 -55 28 -55 -11 0 -96 84 -137 133 -12 15 -11 17 11 17 18 0 29 -9 41
-35z m76 6 c36 -34 38 -41 12 -41 -11 0 -29 12 -40 26 -40 50 -20 60 28 15z"/>
<path d="M1512 1548 c2 -15 11 -24 26 -26 27 -4 28 9 4 31 -25 23 -34 21 -30
-5z"/>
<path d="M324 1666 c-41 -41 -44 -83 -11 -136 57 -91 69 -110 75 -110 4 0 18
9 32 20 14 11 28 20 33 20 12 0 8 -27 -10 -59 -17 -30 -17 -32 3 -68 12 -21
25 -38 30 -40 5 -2 60 48 122 110 l114 114 -37 22 c-44 25 -58 26 -96 4 -36
-22 -48 -10 -26 26 21 36 22 51 2 51 -8 0 -25 10 -37 23 -30 29 -93 57 -130
57 -21 0 -40 -10 -64 -34z m156 -25 c0 10 3 10 12 1 13 -13 15 -19 24 -70 14
-73 -41 -113 -122 -89 -26 7 -50 20 -52 27 -3 7 0 10 7 6 16 -10 14 6 -5 32
-13 18 -13 22 -1 22 8 0 32 19 53 43 37 40 40 42 62 29 18 -12 22 -12 22 -1z
m70 -140 c0 -11 -12 -29 -26 -40 -50 -39 -60 -21 -16 27 32 36 42 39 42 13z
m90 3 c0 -12 -134 -144 -147 -144 -26 0 -12 30 26 54 21 13 48 41 59 60 13 23
29 36 42 36 11 0 20 -3 20 -6z"/>
<path d="M453 1540 c-13 -10 -23 -21 -23 -24 0 -13 41 -5 46 9 11 26 -1 34
-23 15z"/>
<path d="M869 1472 c-164 -43 -301 -181 -345 -347 -8 -27 -14 -84 -14 -125 0
-138 46 -247 144 -346 306 -305 829 -87 829 346 0 322 -301 553 -614 472z
m329 -73 c102 -51 179 -140 222 -255 19 -53 21 -77 18 -160 -2 -55 -10 -112
-17 -129 l-13 -30 -13 35 c-8 19 -14 53 -14 76 -1 49 -37 94 -74 94 -26 0 -77
-35 -77 -52 0 -6 -16 -25 -35 -42 -29 -25 -37 -42 -47 -91 -6 -33 -14 -64 -19
-69 -8 -9 -13 0 -40 72 -9 25 -24 39 -58 55 -48 23 -67 61 -39 78 23 15 82 10
116 -11 41 -25 63 -25 96 1 30 23 33 56 11 99 -19 36 -43 50 -89 50 -36 0 -48
13 -22 23 7 3 32 3 54 0 36 -5 45 -2 72 25 16 17 30 38 30 48 0 28 -40 64 -71
64 -47 0 -59 10 -59 46 0 19 -7 50 -14 69 -14 32 -14 35 3 35 10 0 45 -14 79
-31z m-378 -4 c-10 -12 -10 -21 -1 -41 20 -45 14 -88 -19 -119 -36 -34 -37
-53 -9 -89 17 -21 20 -36 15 -64 -7 -45 -25 -59 -85 -67 -80 -10 -90 -15 -105
-43 -21 -41 1 -78 57 -93 23 -6 47 -13 54 -15 7 -1 20 -18 29 -35 14 -29 15
-41 4 -100 -8 -50 -9 -73 0 -88 20 -38 -9 -23 -71 36 -41 39 -71 80 -97 132
-36 73 -37 77 -37 191 0 114 1 118 37 191 41 82 112 160 179 197 49 26 67 28
49 7z m263 -2 c6 -3 7 -34 3 -79 -7 -79 2 -98 34 -69 17 15 19 15 28 -2 9 -15
15 -16 41 -6 36 13 45 5 31 -31 -9 -25 -12 -26 -71 -21 -34 2 -64 7 -67 9 -11
12 -42 -17 -42 -39 0 -13 -7 -28 -17 -33 -10 -6 -14 -16 -10 -27 5 -12 14 -15
36 -10 17 4 32 2 36 -5 4 -7 22 -9 48 -5 40 6 43 5 54 -26 12 -30 11 -36 -7
-53 -19 -20 -20 -20 -43 2 -30 28 -107 43 -152 29 -48 -14 -64 -63 -40 -118
15 -32 23 -39 47 -39 46 0 68 -17 68 -52 0 -35 33 -93 61 -108 27 -15 46 20
64 114 8 43 15 80 15 83 0 3 18 3 39 0 52 -7 66 8 41 43 -23 32 -18 40 27 40
33 0 33 0 33 -47 0 -26 5 -61 12 -79 10 -29 8 -37 -21 -83 -43 -67 -91 -107
-171 -145 -59 -28 -74 -31 -165 -31 -84 0 -109 4 -152 24 -29 13 -53 27 -53
32 0 5 5 39 12 76 11 65 10 70 -15 119 -26 51 -27 52 -82 59 -57 7 -79 25 -56
48 6 6 37 12 69 12 32 1 71 9 88 18 27 14 33 24 39 64 3 26 9 58 12 70 3 16
-2 24 -24 35 -36 17 -37 42 -1 46 41 5 49 22 42 90 -6 50 -10 62 -28 67 -19 6
-19 7 9 16 65 21 112 28 164 23 29 -2 58 -7 64 -11z"/>
<path d="M1567 1164 c-4 -4 -7 -76 -7 -161 0 -173 2 -178 67 -146 25 12 41 28
48 48 13 41 26 47 50 26 28 -24 72 -51 85 -51 29 0 118 52 128 75 31 67 -4
132 -84 159 -43 14 -49 14 -78 -2 -17 -9 -41 -25 -53 -35 -26 -23 -38 -17 -46
22 -4 17 -17 37 -29 45 -29 19 -71 29 -81 20z m64 -122 c-11 -32 -11 -46 0
-76 12 -32 11 -38 -4 -53 -16 -16 -17 -13 -18 65 -2 149 -3 141 18 120 14 -15
15 -22 4 -56z m189 53 c0 -10 10 -15 30 -15 l30 0 0 -75 0 -75 -31 0 c-24 0
-30 -4 -25 -15 7 -20 -8 -19 -42 2 -53 33 -72 56 -72 87 1 37 13 55 60 83 43
26 50 27 50 8z m-125 -90 c0 -35 -3 -45 -15 -43 -18 4 -24 30 -16 64 11 42 31
28 31 -21z"/>
<path d="M1752 1028 c-17 -17 -15 -45 3 -52 12 -4 15 3 15 29 0 39 -1 40 -18
23z"/>
<path d="M1804 979 c-3 -6 -2 -15 2 -19 12 -12 38 5 30 19 -9 14 -23 14 -32 0z"/>
<path d="M385 1153 c-31 -8 -65 -44 -65 -69 0 -26 -24 -38 -40 -19 -6 8 -30
23 -52 35 l-41 21 -54 -22 c-64 -26 -83 -50 -83 -105 0 -51 31 -86 95 -107 41
-14 46 -14 82 5 21 11 45 26 54 34 23 20 27 18 37 -18 9 -35 42 -64 85 -74
l27 -6 0 166 c0 174 1 170 -45 159z m-167 -70 c54 -33 72 -56 72 -88 0 -34
-20 -57 -77 -88 -29 -16 -33 -16 -33 -3 0 11 -10 16 -30 16 l-30 0 0 75 0 75
31 0 c24 0 30 4 25 15 -7 20 8 19 42 -2z m172 -83 c0 -85 -2 -100 -16 -100
-13 0 -15 6 -9 33 9 42 9 85 0 121 -7 24 3 45 23 46 1 0 2 -45 2 -100z m-55
19 c9 -27 -2 -69 -18 -69 -8 0 -12 16 -12 45 0 47 18 62 30 24z"/>
<path d="M170 1040 c-12 -7 -12 -12 -2 -22 9 -9 15 -9 24 0 16 16 -2 34 -22
22z"/>
<path d="M230 1001 c0 -21 5 -31 16 -31 11 0 14 8 12 27 -4 39 -28 42 -28 4z"/>
<path d="M461 675 c-25 -44 -26 -58 -4 -96 22 -36 10 -48 -26 -26 -36 21 -51
22 -51 2 0 -8 -10 -25 -22 -37 -30 -30 -58 -93 -58 -130 0 -42 57 -98 99 -98
36 0 82 21 124 56 16 13 35 24 43 24 20 0 18 17 -6 50 -26 37 -10 48 35 24 32
-17 35 -17 74 1 23 10 41 23 41 29 0 6 -51 62 -114 125 l-113 113 -22 -37z
m128 -119 c55 -56 62 -66 46 -72 -13 -5 -23 0 -36 17 -51 68 -62 79 -85 85
-17 4 -24 13 -24 30 0 34 18 23 99 -60z m-50 -32 c40 -50 20 -60 -28 -15 -36
34 -38 41 -12 41 11 0 29 -12 40 -26z m-46 -24 c13 -11 27 -30 30 -43 8 -28
-16 -110 -33 -115 -7 -3 -10 0 -6 7 10 15 0 14 -29 -5 -21 -13 -25 -14 -25 -2
0 8 -18 32 -40 53 -22 21 -40 35 -40 30 0 -4 -3 -6 -6 -3 -3 4 3 19 13 34 18
28 18 28 -2 20 -16 -6 -18 -5 -8 5 16 16 70 36 99 38 12 0 33 -8 47 -19z"/>
<path d="M440 472 c0 -10 33 -42 44 -42 4 0 6 10 4 23 -2 14 -11 23 -25 25
-13 2 -23 -1 -23 -6z"/>
<path d="M1396 594 l-109 -113 47 -23 c46 -22 47 -22 80 -4 45 24 63 13 36
-21 -23 -30 -26 -53 -6 -53 8 0 27 -10 43 -22 72 -58 120 -70 172 -44 53 28
66 97 28 157 -45 73 -69 109 -72 109 -2 0 -20 -9 -39 -21 -42 -24 -48 -11 -19
39 16 28 16 32 -1 71 -12 25 -25 40 -35 40 -9 -1 -65 -53 -125 -115z m124 31
c0 -8 -17 -26 -39 -39 -21 -14 -48 -41 -61 -60 -21 -35 -50 -48 -50 -24 0 17
121 138 137 138 7 0 13 -7 13 -15z m0 -74 c0 -10 -55 -71 -64 -71 -17 0 -3 41
20 59 28 22 44 27 44 12z m89 -35 c25 -7 47 -19 49 -26 3 -7 0 -10 -7 -6 -16
10 -14 -6 5 -32 13 -18 13 -22 1 -22 -8 0 -32 -19 -54 -43 -37 -40 -41 -42
-61 -29 -18 12 -22 12 -22 1 0 -18 -22 5 -28 28 -18 77 -10 106 33 131 25 15
31 14 84 -2z"/>
<path d="M1527 483 c-4 -3 -7 -15 -7 -25 0 -18 1 -18 25 -1 13 10 25 21 25 26
0 9 -34 9 -43 0z"/>
<path d="M1546 412 c-2 -4 -1 -14 4 -22 7 -11 12 -12 21 -3 6 6 8 16 5 22 -8
13 -23 14 -30 3z"/>
<path d="M844 428 c-8 -13 9 -63 29 -85 11 -13 30 -23 43 -23 27 0 38 -24 19
-40 -8 -7 -24 -32 -36 -55 l-22 -44 26 -55 c30 -62 49 -76 105 -76 48 0 84 32
105 95 14 41 14 46 -5 82 -11 21 -26 45 -34 54 -20 23 -18 27 18 37 34 9 64
42 74 84 l6 27 -162 3 c-89 2 -164 0 -166 -4z m126 -54 c-15 -17 -61 -15 -68
4 -2 8 9 12 38 12 37 0 41 -2 30 -16z m134 1 c-4 -8 -16 -15 -29 -15 -12 0
-28 7 -35 15 -11 13 -7 15 28 15 33 0 40 -3 36 -15z m-70 -41 c33 -13 16 -30
-29 -29 -41 0 -56 11 -38 28 8 9 46 9 67 1z m23 -66 c13 -12 23 -27 23 -34 0
-6 7 -17 15 -24 8 -7 15 -16 15 -21 0 -5 -7 -9 -15 -9 -10 0 -15 -10 -15 -30
l0 -30 -75 0 -75 0 0 31 c0 24 -4 30 -16 25 -8 -3 -13 -2 -11 2 2 4 11 24 21
44 30 67 89 88 133 46z"/>
<path d="M977 253 c-15 -14 -6 -23 23 -23 20 0 30 5 30 15 0 15 -40 21 -53 8z"/>
</g>
</svg>
