<?xml version="1.0" standalone="no"?>
<!DOCTYPE svg PUBLIC "-//W3C//DTD SVG 20010904//EN"
 "http://www.w3.org/TR/2001/REC-SVG-20010904/DTD/svg10.dtd">
<svg version="1.0" xmlns="http://www.w3.org/2000/svg"
 width="225.000000pt" height="225.000000pt" viewBox="0 0 225.000000 225.000000"
 preserveAspectRatio="xMidYMid meet">
<metadata>
Created by potrace 1.10, written by Peter Selinger 2001-2011
</metadata>
<g transform="translate(0.000000,225.000000) scale(0.100000,-0.100000)"
fill="#000000" stroke="none">
<path d="M1012 2220 c-84 -22 -205 -83 -277 -139 l-50 -39 -86 90 c-78 81 -89
89 -108 79 -25 -14 -27 -38 -5 -62 14 -16 11 -23 -40 -91 -281 -368 -271 -875
24 -1227 166 -198 387 -313 663 -346 l58 -7 -3 -36 c-2 -25 -7 -36 -17 -34
-34 7 -51 -11 -73 -79 l-22 -69 -120 0 c-122 0 -167 -11 -217 -52 -26 -22 -69
-89 -69 -110 0 -11 -11 -23 -25 -28 -34 -13 -43 -39 -20 -56 25 -18 29 -18 40
8 16 35 41 45 63 25 17 -16 59 -17 493 -17 401 1 477 3 493 15 30 23 47 18 59
-15 13 -34 16 -35 42 -16 21 15 14 45 -13 53 -9 2 -30 32 -47 66 -24 49 -40
68 -79 92 -47 29 -55 30 -181 33 l-132 3 -22 70 c-12 38 -28 70 -34 70 -7 1
-21 2 -32 3 -16 1 -21 9 -23 37 l-3 36 91 12 c174 22 336 89 479 196 67 51 75
55 91 40 21 -19 44 -19 59 -1 18 21 7 37 -84 120 l-84 77 45 62 c140 190 191
411 146 631 -58 279 -255 503 -520 592 -88 30 -246 46 -225 23 10 -10 9 -16
-4 -31 -9 -10 -24 -18 -33 -18 -23 0 -34 28 -19 46 17 21 -89 17 -179 -6z m65
-147 c-77 -77 -107 -113 -105 -127 4 -27 34 -32 59 -10 19 17 21 16 53 -15
l34 -33 -20 -34 c-14 -25 -19 -45 -15 -69 5 -30 1 -39 -39 -78 -24 -24 -44
-51 -44 -59 0 -7 20 -34 45 -58 l45 -44 -32 -33 c-26 -27 -30 -37 -22 -51 24
-38 44 -25 190 124 l145 147 27 -26 26 -27 -136 -137 c-142 -144 -157 -169
-143 -233 9 -41 58 -88 100 -96 38 -7 97 9 116 32 10 12 22 5 79 -51 66 -63
70 -65 120 -65 52 0 53 1 136 82 46 45 84 89 84 98 0 8 -29 44 -64 79 -48 48
-69 62 -87 59 -41 -5 -35 -38 19 -91 l49 -48 -57 -55 c-37 -35 -65 -54 -81
-54 -16 0 -46 22 -94 70 -41 40 -79 70 -91 70 -11 0 -33 -13 -49 -30 -33 -35
-67 -38 -95 -10 -37 37 -26 59 87 172 l107 107 53 -50 c45 -43 56 -48 73 -39
32 17 24 44 -29 93 -47 44 -48 46 -30 63 29 26 23 46 -26 94 l-44 43 25 26 25
25 78 -78 c80 -79 102 -89 125 -54 9 14 3 25 -29 58 l-40 41 40 38 c22 20 54
54 71 73 l32 36 20 -21 c36 -40 101 -148 123 -206 64 -171 64 -351 -1 -521
-43 -109 -47 -113 -98 -102 -76 18 -143 -10 -190 -79 -21 -30 -23 -43 -19
-107 l4 -73 -46 -23 c-68 -35 -169 -64 -248 -71 l-70 -7 -6 86 c-8 119 -38
180 -130 274 -39 39 -79 72 -87 72 -9 0 -71 -55 -138 -123 l-121 -123 -41 41
c-22 22 -40 44 -40 47 0 3 39 44 86 91 74 73 89 84 105 74 21 -13 49 5 49 32
0 9 -86 102 -191 206 l-191 190 11 47 c6 26 24 77 40 113 l30 66 38 -8 c149
-29 255 79 220 224 -8 31 -7 33 40 56 79 40 195 73 263 76 21 1 8 -16 -83
-106z m360 72 c113 -35 253 -121 253 -156 0 -6 -29 -41 -64 -78 l-65 -66 -38
38 c-22 20 -43 37 -48 37 -6 0 -84 -74 -175 -165 l-166 -166 -27 29 -27 28 45
44 c44 43 56 72 35 85 -18 11 -11 37 20 72 35 40 33 47 -34 113 l-46 44 87 88
87 87 45 -6 c25 -3 78 -16 118 -28z m-844 -209 c-57 -76 -115 -199 -138 -291
-24 -94 -24 -275 -1 -370 23 -92 93 -236 150 -307 99 -124 275 -236 431 -275
101 -24 286 -22 386 5 93 25 193 74 275 135 l62 45 42 -43 42 -43 -52 -41
c-267 -211 -615 -258 -934 -125 -94 40 -215 125 -293 207 -317 334 -336 847
-45 1205 l35 44 42 -42 43 -42 -45 -62z m201 50 c-2 -46 -34 -82 -86 -98 -29
-9 -41 -9 -50 0 -9 9 3 27 52 77 36 36 69 64 75 62 5 -2 9 -21 9 -41z m-96
-832 l-86 -87 -35 74 c-46 96 -67 181 -74 293 l-5 91 143 -142 144 -143 -87
-86z m358 -116 c60 -67 82 -117 94 -214 6 -43 9 -79 7 -80 -1 -1 -34 3 -72 11
-84 16 -184 54 -244 94 l-44 30 99 104 c54 58 102 105 106 106 3 0 27 -23 54
-51z m730 -9 c6 -10 -112 -139 -128 -139 -15 0 -18 41 -4 74 23 55 111 98 132
65z m-507 -720 c16 -46 15 -47 -26 -51 -27 -2 -39 -8 -41 -21 -8 -43 11 -47
200 -47 206 0 233 -7 275 -72 14 -21 24 -41 21 -43 -3 -3 -224 -4 -491 -3
l-486 3 16 33 c31 65 62 77 208 80 72 1 140 5 152 7 17 4 27 21 44 75 l23 70
47 0 c44 0 48 -2 58 -31z"/>
<path d="M807 1743 c-16 -16 -5 -53 24 -77 24 -21 34 -24 50 -16 26 15 24 39
-8 72 -26 27 -52 35 -66 21z"/>
<path d="M1707 1543 c-14 -13 -6 -38 20 -65 31 -33 58 -36 73 -9 20 38 -63
104 -93 74z"/>
</g>
</svg>
