<?xml version="1.0" standalone="no"?>
<!DOCTYPE svg PUBLIC "-//W3C//DTD SVG 20010904//EN"
 "http://www.w3.org/TR/2001/REC-SVG-20010904/DTD/svg10.dtd">
<svg version="1.0" xmlns="http://www.w3.org/2000/svg"
 width="225.000000pt" height="225.000000pt" viewBox="0 0 225.000000 225.000000"
 preserveAspectRatio="xMidYMid meet">
<metadata>
Created by potrace 1.10, written by Peter Selinger 2001-2011
</metadata>
<g transform="translate(0.000000,225.000000) scale(0.100000,-0.100000)"
fill="#000000" stroke="none">
<path d="M931 2075 c-225 -51 -422 -171 -558 -340 -70 -87 -150 -239 -181
-347 l-20 -66 34 5 c22 4 42 0 57 -10 24 -16 24 -15 41 46 22 80 86 208 138
274 315 409 897 460 1265 109 142 -134 218 -269 257 -453 l14 -63 -44 0 c-26
0 -44 -5 -44 -11 0 -20 130 -199 145 -199 17 0 148 187 140 200 -4 6 -24 10
-46 10 -21 0 -39 1 -39 3 0 22 -26 137 -42 187 -98 307 -339 541 -655 636 -75
23 -111 27 -243 30 -110 3 -174 -1 -219 -11z m452 -59 c336 -100 585 -368 651
-701 13 -65 22 -85 46 -105 l29 -26 -20 -34 c-12 -19 -28 -43 -37 -53 -14 -16
-16 -16 -34 0 -10 9 -28 32 -40 51 l-20 33 28 30 28 30 -16 79 c-22 107 -99
266 -176 362 -246 308 -660 421 -1022 277 -247 -99 -413 -274 -528 -561 -7
-16 -16 -28 -22 -28 -41 0 47 204 142 328 109 141 281 259 455 312 112 34 158
39 308 35 115 -2 156 -8 228 -29z"/>
<path d="M742 1628 c3 -177 4 -185 30 -235 25 -47 108 -130 239 -238 l37 -30
-124 -108 c-172 -149 -178 -161 -182 -374 -3 -106 0 -168 8 -182 11 -21 15
-21 386 -21 l376 0 -4 183 c-3 173 -4 185 -29 232 -23 45 -139 161 -246 245
l-28 22 70 61 c147 128 202 190 219 247 19 62 23 329 6 361 -10 18 -25 19
-386 19 l-376 0 4 -182z m88 134 c0 -5 -11 -19 -25 -32 l-25 -23 0 25 c0 13 3
28 7 31 9 10 43 9 43 -1z m634 -8 c3 -9 6 -23 6 -32 0 -12 -5 -11 -25 8 -14
13 -25 27 -25 32 0 15 38 8 44 -8z m-44 -157 c0 -162 -7 -174 -170 -316 l-125
-108 -104 91 c-194 170 -191 164 -191 336 l0 120 295 0 295 0 0 -123z m-219
-423 c-23 -30 -26 -55 -10 -85 10 -19 9 -19 -29 2 l-40 23 -42 -28 c-40 -26
-42 -27 -26 -5 21 30 20 53 -1 86 l-18 27 40 -27 c22 -15 45 -27 51 -27 6 0
29 13 50 29 49 37 50 37 25 5z m132 -283 c77 -73 87 -100 87 -241 l0 -120
-295 0 -295 0 0 118 c1 160 6 170 166 314 l129 115 80 -70 c44 -39 102 -91
128 -116z m-503 -403 c0 -4 -9 -8 -19 -8 -19 0 -31 18 -31 48 0 12 5 11 25 -8
14 -13 25 -27 25 -32z m636 6 c-5 -14 -46 -20 -46 -7 0 4 10 18 23 31 18 20
23 21 25 7 2 -9 1 -23 -2 -31z"/>
<path d="M860 1527 c3 -37 13 -75 25 -94 16 -25 141 -141 227 -211 13 -10 32
3 127 86 61 54 119 108 127 121 14 19 38 150 30 158 -2 2 -22 -4 -45 -12 -81
-28 -211 -39 -317 -25 -53 6 -114 18 -136 26 -23 8 -41 14 -42 14 -1 0 1 -28
4 -63z m173 -19 c79 -10 210 -4 299 14 8 2 14 -9 16 -26 3 -25 -7 -40 -71
-101 -41 -39 -91 -84 -111 -100 -46 -35 -52 -33 -175 83 -80 76 -91 91 -91
121 0 30 2 33 23 27 12 -4 62 -12 110 -18z"/>
<path d="M990 747 c-120 -107 -125 -113 -128 -155 l-3 -43 263 2 c145 1 266 3
269 5 3 2 3 20 0 42 -5 34 -20 51 -133 150 -70 62 -130 112 -135 111 -4 0 -64
-51 -133 -112z m242 -28 c112 -98 123 -110 105 -121 -6 -4 -102 -8 -212 -8
-110 0 -206 4 -212 8 -10 7 -10 11 0 24 23 31 200 178 213 178 7 0 55 -36 106
-81z"/>
<path d="M136 1135 c-37 -53 -64 -100 -61 -105 3 -6 24 -10 45 -10 35 0 40 -3
45 -27 36 -191 105 -350 208 -478 118 -146 293 -263 483 -322 83 -25 101 -27
269 -27 167 0 186 2 268 27 272 84 478 257 601 504 28 57 46 107 81 220 3 8
-7 10 -30 6 -23 -4 -43 0 -58 10 l-24 16 -18 -64 c-38 -141 -115 -265 -238
-381 -233 -222 -555 -291 -864 -185 -212 73 -407 252 -498 456 -30 68 -65 188
-65 222 0 20 5 23 40 23 23 0 40 5 40 11 0 19 -130 199 -144 199 -7 0 -43 -43
-80 -95z m139 -39 c18 -32 17 -33 -9 -59 -32 -32 -32 -43 -1 -151 88 -302 325
-540 625 -626 107 -31 289 -38 399 -16 211 43 392 151 527 314 51 62 135 212
162 290 13 38 39 39 34 1 -6 -42 -60 -157 -107 -231 -136 -209 -352 -353 -605
-404 -122 -24 -313 -15 -435 21 -339 100 -592 380 -655 725 -8 42 -17 61 -41
82 l-31 26 22 34 c49 70 51 71 75 48 13 -12 30 -36 40 -54z"/>
</g>
</svg>
